<svg height="512" viewBox="0 0 256 256" width="512" xmlns="http://www.w3.org/2000/svg"><g id="Layer_1"><path d="m75.919 83.772c-13.8 0-25.006 11.207-25.006 25.007v16.66c0 3.728.815 7.241 2.282 10.423 1.254 2.721 2.965 5.189 5.076 7.289l.001.002h-10.483c-2.521 0-4.615 1.792-5.104 4.156v.021c-.073.333-.104.677-.104 1.031v1.042c0 5.75 4.667 10.417 10.417 10.417h4.167c2.415 0 4.642-.822 6.402-2.205.397 2.549 1.564 4.841 3.257 6.62 2.282 2.421 5.507 3.921 9.096 3.921 6.9 0 12.493-5.593 12.493-12.503v-8.571c7.468-4.318 12.503-12.385 12.503-21.642v-16.66c-.001-13.801-11.197-25.008-24.997-25.008z" fill="#feb69f"/><g><g><path d="m75.723 32.004c-3.729-1.228-6.641-2.022-8.591-10.421-.635-2.737-4.548-2.73-5.181 0-1.907 8.213-4.566 9.092-8.591 10.422-2.424.801-2.43 4.248 0 5.051 6.686 2.209 7.444 5.476 8.591 10.421.637 2.743 4.545 2.742 5.182 0 1.905-8.212 4.709-9.139 8.591-10.421 2.423-.802 2.428-4.25-.001-5.052z"/></g><g><g><path d="m68.533 34.554c-1.48 1.03-2.8 2.42-3.94 4.44-.94-1.59-2.25-3.09-4.16-4.4 1.55-1.07 2.93-2.51 4.12-4.64 1.2 2.16 2.56 3.59 3.98 4.6z" fill="#f0c020"/></g></g></g><g><g><path d="m202.641 32.004c-3.729-1.228-6.641-2.022-8.591-10.421-.635-2.737-4.548-2.73-5.181 0-1.907 8.213-4.566 9.092-8.591 10.422-2.424.801-2.43 4.248 0 5.051 6.686 2.209 7.444 5.476 8.591 10.421.637 2.743 4.545 2.742 5.182 0 1.905-8.212 4.709-9.139 8.591-10.421 2.423-.802 2.429-4.25-.001-5.052z"/></g><g><g><path d="m195.451 34.554c-1.48 1.03-2.8 2.42-3.94 4.44-.94-1.59-2.25-3.09-4.16-4.4 1.55-1.07 2.93-2.51 4.12-4.64 1.2 2.16 2.56 3.59 3.98 4.6z" fill="#f0c020"/></g></g></g><g><path d="m155.085 108.777v16.66c0 9.257 5.036 17.325 12.503 21.642v4.404h-79.176v-4.404c7.468-4.318 12.503-12.385 12.503-21.642v-16.66c0-13.8-11.196-25.006-24.996-25.006v-2.743c0-1.629.182-3.225.536-4.746 2.089-9.31 10.264-16.328 20.132-16.66.257-.021.504-.021.761-.021h7.082c3.439 9.76 12.782 16.682 23.571 16.682 10.768 0 20.121-6.9 23.582-16.682h7.071c.257 0 .504 0 .761.021 9.868.332 18.042 7.35 20.132 16.66.354 1.521.536 3.118.536 4.746v2.743c-13.791-.001-24.998 11.195-24.998 25.006z" fill="#f0c020"/></g><g><path d="m159.414 59.621c-3.696 13.95-16.435 24.16-31.414 24.16-15 0-27.717-10.232-31.414-24.16.257-.021.504-.021.761-.021h7.082c3.439 9.76 12.782 16.682 23.571 16.682 10.768 0 20.121-6.9 23.582-16.682h7.071c.257-.001.503-.001.761.021z" fill="#e8a61e"/></g><g><path d="m180.081 83.772v-2.742c0-1.628-.182-3.225-.536-4.746-17.667.279-31.96 14.753-31.96 32.496v16.66c0 6.728 2.121 13.178 5.85 18.546h-50.87c3.739-5.368 5.85-11.818 5.85-18.546v-16.66c0-17.742-14.292-32.217-31.96-32.496-.354 1.521-.536 3.118-.536 4.746v2.743c13.8 0 24.996 11.207 24.996 25.007v16.66c0 9.257-5.036 17.325-12.503 21.642v4.401h79.176v-4.401c-7.468-4.318-12.503-12.385-12.503-21.642v-16.66c0-13.811 11.207-25.008 24.996-25.008z" fill="#e8a61e"/></g><g><path d="m125.917 168.154v25.001h-13.021v53.238h-95.316v-120.949h25l-.01 11.573.115 10.292v.021c-.073.333-.104.677-.104 1.031v1.042c0 5.75 4.667 10.417 10.417 10.417h4.167c2.417 0 4.646-.823 6.406-2.208.396 2.552 1.563 4.844 3.25 6.625 2.281 2.417 5.511 3.917 9.094 3.917 6.906 0 12.5-5.594 12.5-12.5v-4.171h20.834c9.209 0 16.668 7.462 16.668 16.671z" fill="#72c2e9"/></g><g><path d="m66.821 164.237c-2.823 1.854-6.209 2.875-9.657 2.875h-4.167c-9.761 0-17.709-7.948-17.709-17.709v-1.042c0-5.006 2.961-9.35 7.281-11.344l.115 10.292v.021c-.073.333-.104.677-.104 1.031v1.042c0 5.75 4.667 10.417 10.417 10.417h4.167c2.417 0 4.646-.823 6.406-2.208.397 2.552 1.563 4.844 3.251 6.625z" fill="#4ba5c8"/></g><g><path d="m238.42 55.65v69.794h-25v-69.794c0-6.906 5.594-12.5 12.5-12.5 6.917 0 12.5 5.583 12.5 12.5z" fill="#feb69f"/></g><g><path d="m17.58 125.444h25v-69.794c0-6.904-5.597-12.5-12.5-12.5-6.904 0-12.5 5.597-12.5 12.5z" fill="#feb69f"/></g><g><path d="m94.978 151.483c-2.021 1.479-4.219 2.744-6.563 3.723v-3.723z" fill="#4ba5c8"/></g><g><path d="m238.42 125.444v120.948h-98.962v-64.696h-13.542v-13.542c0-9.209-7.459-16.671-16.667-16.671h58.335v4.171c0 6.906 5.594 12.5 12.5 12.5s12.5-5.594 12.5-12.5v-4.167h15.626c2.875 0 5.209-2.333 5.209-5.209v-20.834z" fill="#fc5d3d"/></g><g><path d="m133.209 168.154v13.542h-7.292v-13.542c0-9.209-7.459-16.671-16.667-16.671h17.199c4.176 4.312 6.76 10.202 6.76 16.671z" fill="#b25035"/></g><g><path d="m161.022 151.483h6.563v3.723c-2.344-.98-4.542-2.244-6.563-3.723z" fill="#b25035"/></g><g><path d="m199.148 151.487c-2.021 1.479-4.219 2.74-6.563 3.719v-3.719z" fill="#b25035"/></g><g><path d="m192.584 147.082v8.571c0 6.911-5.593 12.503-12.503 12.503-6.9 0-12.493-5.593-12.493-12.503v-8.571c3.675 2.143 7.95 3.364 12.493 3.364 4.553 0 8.828-1.222 12.503-3.364z" fill="#feb69f"/></g><g><path d="m192.586 147.08v8.136c-3.844 1.625-8.073 2.521-12.5 2.521s-8.657-.896-12.5-2.521v-8.136c3.677 2.146 7.948 3.365 12.5 3.365s8.822-1.219 12.5-3.365z" fill="#ea8f7c"/></g><g><path d="m74.843 150.399c.52-8.774-5.29-14.538-12.47-14.538l-9.178.001c1.25 2.729 2.972 5.184 5.076 7.289l4.102.002c2.893 0 5.209 2.346 5.209 5.209v1.042c0 3.372-1.638 6.381-4.011 8.209.396 2.552 1.563 4.844 3.25 6.625 2.541-1.657 4.627-3.95 6.04-6.646h.002c5.411.502 10.705-.325 15.553-2.375v-8.136c-3.971 2.316-8.589 3.547-13.573 3.318z" fill="#ea8f7c"/></g><g><path d="m205.087 108.779v16.66c0 9.257-5.036 17.325-12.503 21.642-3.675 2.143-7.95 3.364-12.503 3.364-4.543 0-8.818-1.221-12.493-3.364-7.468-4.318-12.503-12.385-12.503-21.642v-16.66c0-13.81 11.207-25.007 24.996-25.007 13.81 0 25.006 11.207 25.006 25.007z" fill="#feb69f"/></g><g><path d="m139.459 213.207v22.592h-26.564v-42.644h13.022v20.052z" fill="#feb69f"/></g><g><path d="m112.895 193.155h6.427v42.644h-6.427z" fill="#ea8f7c"/></g><g><path d="m152.996 34.614v16.671c0 2.925-.504 5.721-1.414 8.314-3.461 9.782-12.814 16.682-23.582 16.682-10.789 0-20.132-6.921-23.571-16.682-.921-2.593-1.425-5.389-1.425-8.314v-16.671c0-13.8 11.207-25.007 24.996-25.007 13.8.001 24.996 11.208 24.996 25.007z" fill="#feb69f"/></g><g><path d="m228.516 238.988c-1.381 0-2.5-1.119-2.5-2.5v-3c0-1.381 1.119-2.5 2.5-2.5s2.5 1.119 2.5 2.5v3c0 1.381-1.12 2.5-2.5 2.5zm0-13c-1.381 0-2.5-1.119-2.5-2.5v-98.044c0-1.381 1.119-2.5 2.5-2.5s2.5 1.119 2.5 2.5v98.044c0 1.381-1.12 2.5-2.5 2.5z" fill="#ffcbc3"/></g><g><path d="m228.516 127.944c-1.381 0-2.5-1.119-2.5-2.5v-66.942c0-1.381 1.119-2.5 2.5-2.5s2.5 1.119 2.5 2.5v66.942c0 1.381-1.12 2.5-2.5 2.5z" fill="#fae0e1"/></g><g><path d="m27.302 238.988c-1.381 0-2.5-1.119-2.5-2.5v-3c0-1.381 1.119-2.5 2.5-2.5s2.5 1.119 2.5 2.5v3c0 1.381-1.119 2.5-2.5 2.5zm0-13c-1.381 0-2.5-1.119-2.5-2.5v-98.044c0-1.381 1.119-2.5 2.5-2.5s2.5 1.119 2.5 2.5v98.044c0 1.381-1.119 2.5-2.5 2.5z" fill="#c5e5fe"/></g><g><path d="m27.302 127.944c-1.381 0-2.5-1.119-2.5-2.5v-66.942c0-1.381 1.119-2.5 2.5-2.5s2.5 1.119 2.5 2.5v66.942c0 1.381-1.119 2.5-2.5 2.5z" fill="#fae0e1"/></g><g><circle cx="17.58" cy="71.57" r="2.5"/></g><g><path d="m75.993 137.352c7.115 0 12.903-5.789 12.903-12.904 0-1.381-1.119-2.5-2.5-2.5s-2.5 1.119-2.5 2.5c0 4.358-3.546 7.904-7.903 7.904-4.358 0-7.904-3.545-7.904-7.904 0-1.381-1.119-2.5-2.5-2.5s-2.5 1.119-2.5 2.5c0 7.115 5.789 12.904 12.904 12.904z"/></g><g><path d="m172.182 124.448c0-1.381-1.119-2.5-2.5-2.5s-2.5 1.119-2.5 2.5c0 7.115 5.788 12.904 12.903 12.904s12.904-5.789 12.904-12.904c0-1.381-1.119-2.5-2.5-2.5s-2.5 1.119-2.5 2.5c0 4.358-3.546 7.904-7.904 7.904-4.357 0-7.903-3.545-7.903-7.904z"/></g><g><path d="m240.92 246.39v-30c0-1.37-1.12-2.5-2.5-2.5s-2.5 1.13-2.5 2.5v30c0 1.38 1.12 2.5 2.5 2.5s2.5-1.12 2.5-2.5z"/></g><g><circle cx="238.42" cy="206.39" r="2.5"/></g><g><path d="m17.579 248.892c1.381 0 2.5-1.119 2.5-2.5v-118.448h20.087v19.317c-.052.354-.086.715-.086 1.101v1.042c0 7.123 5.795 12.917 12.917 12.917h4.167c1.68 0 3.337-.341 4.871-.965.692 1.693 1.69 3.249 2.967 4.597 2.861 3.032 6.736 4.701 10.912 4.701 8.271 0 15-6.729 15-15v-1.667h18.301c.012 0 .022.003.034.003 7.806 0 14.167 6.348 14.167 14.164v22.501h-8.021v-9.653c0-1.381-1.119-2.5-2.5-2.5s-2.5 1.119-2.5 2.5v65.391c0 1.381 1.119 2.5 2.5 2.5s2.5-1.119 2.5-2.5v-8.093h21.564v8.09c0 1.38 1.12 2.5 2.5 2.5s2.5-1.12 2.5-2.5v-64.69c0-1.393-1.119-2.5-2.5-2.5h-11.043v-11.046c0-5.614-2.441-10.655-6.299-14.164h42.962v1.66c.009 8.126 6.628 15.004 15.005 15.004 7.239 0 13.296-5.153 14.696-11.984.363-1.759.309-2.911.309-4.68h13.12c4.25-.01 7.71-3.46 7.71-7.71v-18.336h20v68.446c0 1.38 1.12 2.5 2.5 2.5s2.5-1.12 2.5-2.5v-.01c0-5.038.001-135.728.001-140.73 0-8.271-6.729-15-15.001-15s-15 6.729-15 15v69.79.004 20.836c0 1.49-1.22 2.7-2.71 2.71h-13.124v-.523c7.742-5.046 12.5-13.731 12.5-23.023v-16.667c0-14.322-11.007-26.116-25.005-27.383v-.367c0-1.809-.202-3.596-.597-5.293-2.372-10.574-11.592-18.219-22.431-18.61-.303-.022-.596-.025-.901-.025h-3.799c.411-1.906.643-3.847.636-5.809v-16.68c0-15.16-12.33-27.5-27.5-27.5-7.851 0-15.351 3.38-20.561 9.27-.92 1.03-.82 2.61.21 3.53.99.87 2.641.77 3.53-.22 4.28-4.82 10.41-7.58 16.83-7.58 12.38.02 22.47 10.12 22.5 22.5v16.68c0 12.385-10.072 22.49-22.5 22.49h-.021c-12.478 0-22.479-10.187-22.479-22.49v-14.81c0-1.38-1.12-2.5-2.5-2.5-1.37 0-2.49 1.12-2.49 2.5l-.01 14.81c0 1.97.233 3.908.646 5.809h-3.798c-12.813 0-23.929 10.439-23.929 23.928v.367c-13.998 1.266-25.005 13.06-25.005 27.383v16.667c0 4.002.845 7.86 2.508 11.458.601 1.312 1.317 2.557 2.11 3.751h-5.242c-.949 0-1.865.179-2.715.503-.003-1.421-.003-2.889-.003-4.138l.01-11.567v-69.8c0-8.27-6.73-15-15-15-8.271 0-15 6.73-15 15v5.92c0 1.38 1.12 2.5 2.5 2.5s2.5-1.12 2.5-2.5v-5.92c.01-5.5 4.5-9.99 10-10 5.5.01 9.989 4.5 10 10v67.29h-20v-41.371c0-1.38-1.12-2.5-2.5-2.5s-2.5 1.12-2.5 2.5v43.864c0 .003-.001.006-.001.01v120.948c.001 1.381 1.12 2.5 2.501 2.5zm119.38-15.593h-21.563v-37.645h8.021v17.553c0 1.381 1.119 2.5 2.5 2.5h11.042zm.001-49.109v26.518h-8.543c0-2.036 0-22.195 0-26.518zm88.96-138.541c5.515 0 10.001 4.486 10.001 10v67.29h-20.001v-67.289c0-5.514 4.486-10.001 10-10.001zm-140.005 110.004c0 5.514-4.486 10-10 10-2.785 0-5.369-1.113-7.279-3.137-1.085-1.145-1.87-2.512-2.31-4.009 1.61-1.617 2.885-3.832 3.435-6.258 5.459 1.261 11.224.741 16.154-1.191zm94.17-2.708c3.219 0 6.846-.65 10.001-1.886v4.594c0 .344-.018.684-.052 1.019-.53 5.031-4.789 8.968-9.944 8.978-5.639-.01-10.005-4.66-10.005-9.997v-4.594c3.173 1.244 6.729 1.886 10 1.886zm22.501-44.168v16.667c0 12.292-10.019 22.501-22.501 22.501-12.471 0-22.501-10.196-22.501-22.501v-16.667c0-12.407 10.094-22.501 22.501-22.501s22.501 10.094 22.501 22.501zm-105.238-46.678h5.382c4.298 10.035 14.229 16.671 25.27 16.681 11.027-.009 20.965-6.642 25.274-16.681h5.378c.187 0 .365-.002.553.013.041.003.082.006.124.007 8.588.29 15.898 6.338 17.78 14.728.313 1.345.472 2.752.472 4.18v.368c-13.994 1.27-24.997 13.062-24.997 27.382v16.667c0 9.295 4.762 17.983 12.501 23.023v.523c-1.371 0-72.811-.003-74.17-.003v-.52c7.743-5.046 12.501-13.731 12.501-23.023v-16.667c0-14.32-11.003-26.112-24.997-27.382v-.368c0-10.647 8.768-18.928 18.929-18.928zm-41.883 72.713c-1.361-2.943-2.051-6.095-2.051-9.368v-16.667c0-12.407 10.094-22.501 22.501-22.501s22.501 10.094 22.501 22.501v16.667c0 14.716-14.092 25.659-28.434 21.695-.633-3.775-3.844-6.486-7.609-6.486h-3.037c-1.589-1.736-2.889-3.695-3.871-5.841zm-7.676 10.841h14.584c1.53 0 2.708 1.244 2.708 2.708v1.042c0 4.28-3.457 7.917-7.917 7.917h-4.167c-4.365 0-7.917-3.552-7.917-7.917v-1.042c0-1.53 1.254-2.708 2.709-2.708z"/></g><g><path d="m140.904 49.427c0-1.381-1.119-2.5-2.5-2.5s-2.5 1.119-2.5 2.5c0 4.358-3.546 7.904-7.904 7.904s-7.904-3.545-7.904-7.904c0-1.381-1.119-2.5-2.5-2.5s-2.5 1.119-2.5 2.5c0 7.115 5.789 12.904 12.904 12.904s12.904-5.789 12.904-12.904z"/></g><g><path d="m103.51 28.99c1.244.433 2.706-.215 3.17-1.57.453-1.359-.308-2.74-1.57-3.16-1.29-.44-2.739.29-3.17 1.56-.44 1.31.26 2.73 1.57 3.17z"/></g></g></svg>