<?xml version="1.0" encoding="iso-8859-1"?>
<!-- Generator: Adobe Illustrator 19.0.0, SVG Export Plug-In . SVG Version: 6.00 Build 0)  -->
<svg version="1.1" id="Capa_1" xmlns="http://www.w3.org/2000/svg" xmlns:xlink="http://www.w3.org/1999/xlink" x="0px" y="0px"
	 viewBox="0 0 511.997 511.997" style="enable-background:new 0 0 511.997 511.997;" xml:space="preserve">
<g>
	<path style="fill:#5A54E0;" d="M100.967,312.809l-1.018,81.134c0,26.638-10.373,51.68-29.209,70.517l28.343,28.343
		c26.406-26.406,40.949-61.516,40.949-98.86v-41.407v8.68v140.291h40.156V312.39L100.967,312.809z"/>
	<path style="fill:#5A54E0;" d="M412.052,321.095v72.849c0,26.638,10.373,51.68,29.209,70.517l-28.343,28.343
		c-26.406-26.406-40.949-61.516-40.949-98.86v-41.407v8.68v140.291h-40.156V313.827"/>
</g>
<path style="fill:#72D8FF;" d="M276.513,116.254c0-11.024-8.936-19.96-19.96-19.96c-11.024,0-19.96,8.936-19.96,19.96
	c0,42.924-34.92,77.844-77.844,77.844h-14.227c-0.43,0-0.851,0.038-1.275,0.065c-0.424-0.027-0.844-0.065-1.275-0.065h-14.226
	c-42.924,0-77.844-34.92-77.844-77.844c0-11.024-8.936-19.96-19.96-19.96s-19.96,8.936-19.96,19.96
	c0,52.354,34.345,96.831,81.684,112.103v85.47h95.808v-83.358C238.57,217.612,276.513,171.283,276.513,116.254z"/>
<path style="fill:#A0E557;" d="M235.488,116.254c0-11.024,8.936-19.96,19.96-19.96s19.96,8.936,19.96,19.96
	c0,42.924,34.92,77.844,77.844,77.844h14.228c0.43,0,0.851,0.038,1.275,0.065c0.424-0.027,0.844-0.065,1.275-0.065h14.228
	c42.924,0,77.844-34.92,77.844-77.844c0-11.024,8.936-19.96,19.96-19.96s19.96,8.936,19.96,19.96
	c0,52.354-34.345,96.831-81.684,112.103v85.47H324.53v-83.358C273.431,217.612,235.488,171.283,235.488,116.254z"/>
<g>
	<path style="fill:#FCC69D;" d="M140.641,125.565L140.641,125.565c-17.352,0-31.419,14.067-31.419,31.419v5.713
		c0,17.352,14.067,31.419,31.419,31.419l0,0c17.352,0,31.419-14.067,31.419-31.419v-5.713
		C172.06,139.632,157.993,125.565,140.641,125.565z"/>
	<path style="fill:#FCC69D;" d="M371.359,125.565L371.359,125.565c17.352,0,31.419,14.067,31.419,31.419v5.713
		c0,17.352-14.067,31.419-31.419,31.419l0,0c-17.352,0-31.419-14.067-31.419-31.419v-5.713
		C339.941,139.632,354.008,125.565,371.359,125.565z"/>
</g>
<path d="M420.338,253.004c-2.625,0-5.2,1.067-7.056,2.924c-1.855,1.856-2.924,4.431-2.924,7.056c0,2.625,1.068,5.2,2.924,7.055
	c1.856,1.856,4.422,2.925,7.056,2.925c2.625,0,5.2-1.068,7.056-2.925c1.855-1.855,2.924-4.43,2.924-7.055
	c0-2.636-1.068-5.2-2.924-7.056C425.537,254.072,422.962,253.004,420.338,253.004z"/>
<path d="M482.06,86.314c-16.509,0-29.94,13.431-29.94,29.94c0,28.592-17.782,53.092-42.86,63.071
	c2.243-5.093,3.498-10.715,3.498-16.627v-5.714c0-22.827-18.571-41.399-41.398-41.399s-41.398,18.572-41.398,41.399v5.713
	c0,6.749,1.635,13.122,4.512,18.757c-28.311-8.168-49.085-34.295-49.085-65.2c0-16.509-13.431-29.94-29.94-29.94
	s-29.94,13.431-29.94,29.94c0,3.422,0.14,6.817,0.406,10.181c-0.107,0.367-0.199,0.743-0.263,1.129
	c-4.439,26.371-23.531,46.912-48.143,53.933c2.89-5.646,4.533-12.032,4.533-18.798v-5.714c0-22.827-18.571-41.399-41.398-41.399
	h-0.001c-22.827,0-41.398,18.572-41.398,41.399v5.713c0,5.912,1.254,11.535,3.498,16.628c-25.081-9.978-42.863-34.479-42.863-63.071
	c0-16.509-13.431-29.94-29.94-29.94S0,99.745,0,116.254c0,27.538,8.663,53.783,25.052,75.9
	c14.585,19.683,34.058,34.528,56.633,43.252v78.421c0,4.932,3.583,9.019,8.285,9.825v70.291c0,23.973-9.335,46.511-26.286,63.46
	c-1.871,1.871-2.923,4.41-2.923,7.057c0,2.647,1.052,5.185,2.923,7.057l28.342,28.342c1.949,1.948,4.503,2.923,7.057,2.923
	s5.108-0.975,7.057-2.923c9.417-9.417,17.417-19.872,23.912-31.101v32.747c0,5.511,4.469,9.98,9.98,9.98h40.155
	c5.511,0,9.98-4.469,9.98-9.98v-72.854c0-5.511-4.469-9.98-9.98-9.98c-5.511,0-9.98,4.469-9.98,9.98v62.874h-20.195v-97.583v-32.726
	v-8.68c0-5.511-4.469-9.98-9.98-9.98s-9.98,4.469-9.98,9.98v8.68v32.726c0,31.331-11.024,60.968-31.234,84.48l-14.278-14.278
	c16.441-19.675,25.389-44.249,25.389-70.202v-70.136h60.277v34.321c0,5.511,4.469,9.98,9.98,9.98c5.511,0,9.98-4.469,9.98-9.98
	v-34.699c4.201-1.177,7.285-5.025,7.285-9.602v-75.829c22.689-7.232,42.965-20.758,58.48-38.949
	c15.17,17.832,35.268,31.55,58.617,38.955v75.824c0,4.576,3.085,8.424,7.285,9.602v178.079c0,5.511,4.469,9.98,9.98,9.98h40.155
	c5.511,0,9.98-4.469,9.98-9.98v-32.748c6.495,11.229,14.495,21.684,23.912,31.102c1.949,1.948,4.503,2.923,7.057,2.923
	c2.554,0,5.108-0.975,7.057-2.923l28.343-28.342c1.871-1.871,2.923-4.41,2.923-7.057c0-2.647-1.052-5.186-2.923-7.057
	c-16.951-16.949-26.286-39.487-26.286-63.46v-70.291c4.702-0.806,8.284-4.893,8.284-9.825V291.43c0-5.511-4.469-9.98-9.98-9.98
	s-9.98,4.469-9.98,9.98v12.418h-75.848V230.47c0-4.574-3.109-8.563-7.546-9.679c-47.983-12.072-81.495-55.058-81.495-104.536
	c0-5.503,4.477-9.98,9.98-9.98c5.503,0,9.98,4.477,9.98,9.98c0,48.426,39.398,87.824,87.824,87.824l14.182-0.001
	c1.539,0.049,3.076,0.027,4.617,0.001h12.206c48.426,0,87.824-39.398,87.824-87.824c0-5.503,4.477-9.98,9.98-9.98
	s9.98,4.477,9.98,9.98c0,46.944-30.047,88.177-74.768,102.606c-4.122,1.329-6.916,5.167-6.916,9.498v4.189
	c0,5.511,4.469,9.98,9.98,9.98c4.451,0,8.222-2.914,9.508-6.939c22.776-8.701,42.418-23.614,57.105-43.434
	c16.389-22.117,25.052-48.362,25.052-75.9C512,99.745,498.569,86.314,482.06,86.314z M427.461,464.145l-14.279,14.278
	c-20.211-23.513-31.234-53.15-31.234-84.48v-32.726v-8.68c0-5.511-4.469-9.98-9.98-9.98s-9.98,4.469-9.98,9.98v8.68v32.726v97.583
	h-20.195V323.807h60.278v70.136C402.072,419.896,411.021,444.471,427.461,464.145z M119.202,156.984
	c0-11.822,9.618-21.439,21.439-21.439c11.821,0,21.438,9.618,21.438,21.439v5.713c0,11.705-9.432,21.233-21.094,21.421h-0.692
	c-11.661-0.188-21.093-9.717-21.093-21.421L119.202,156.984L119.202,156.984z M177.492,230.468v73.378h-75.848v-75.49
	c0-4.331-2.794-8.169-6.916-9.498c-44.721-14.427-74.768-55.66-74.768-102.604c0-5.503,4.477-9.98,9.98-9.98s9.98,4.477,9.98,9.98
	c0,48.426,39.398,87.824,87.824,87.824l12.174-0.001c1.535,0.028,3.072,0.059,4.605,0.001h14.227
	c20.863,0,41.098-7.473,56.974-21.043c7.191-6.146,13.279-13.375,18.11-21.341c2.728,7.179,6.099,14.057,10.032,20.576
	c-14.807,19.048-35.537,32.66-58.827,38.52C180.601,221.905,177.492,225.894,177.492,230.468z M349.921,156.984
	c0-11.822,9.618-21.439,21.438-21.439s21.438,9.618,21.438,21.439v5.713c0,11.705-9.432,21.233-21.093,21.421h-0.692
	c-11.661-0.188-21.093-9.717-21.093-21.421v-5.713H349.921z"/>
<path d="M180.189,384.072c-2.625,0-5.2,1.067-7.056,2.924c-1.855,1.856-2.924,4.431-2.924,7.056c0,2.625,1.058,5.2,2.924,7.055
	c1.856,1.866,4.431,2.925,7.056,2.925s5.2-1.059,7.056-2.925c1.855-1.855,2.924-4.43,2.924-7.055c0-2.625-1.068-5.2-2.924-7.056
	C185.388,385.14,182.814,384.072,180.189,384.072z"/>
<path d="M423.436,32.876c5.511,0,9.98-4.469,9.98-9.98V10.49c0-5.511-4.469-9.98-9.98-9.98s-9.98,4.469-9.98,9.98v12.405
	C413.456,28.407,417.926,32.876,423.436,32.876z"/>
<path d="M423.436,92.326c5.511,0,9.98-4.469,9.98-9.98V69.941c0-5.511-4.469-9.98-9.98-9.98s-9.98,4.469-9.98,9.98v12.405
	C413.456,87.858,417.926,92.326,423.436,92.326z"/>
<path d="M446.959,56.398h12.405c5.511,0,9.98-4.469,9.98-9.98s-4.469-9.98-9.98-9.98h-12.405c-5.511,0-9.98,4.469-9.98,9.98
	S441.448,56.398,446.959,56.398z"/>
<path d="M387.508,56.398h12.405c5.511,0,9.98-4.469,9.98-9.98s-4.469-9.98-9.98-9.98h-12.405c-5.511,0-9.98,4.469-9.98,9.98
	S381.997,56.398,387.508,56.398z"/>
<path d="M105.386,32.876c5.511,0,9.98-4.469,9.98-9.98V10.49c0-5.511-4.469-9.98-9.98-9.98c-5.511,0-9.98,4.469-9.98,9.98v12.405
	C95.406,28.407,99.874,32.876,105.386,32.876z"/>
<path d="M105.386,92.326c5.511,0,9.98-4.469,9.98-9.98V69.941c0-5.511-4.469-9.98-9.98-9.98c-5.511,0-9.98,4.469-9.98,9.98v12.405
	C95.406,87.858,99.874,92.326,105.386,92.326z"/>
<path d="M128.909,56.398h12.405c5.511,0,9.98-4.469,9.98-9.98s-4.469-9.98-9.98-9.98h-12.405c-5.511,0-9.98,4.469-9.98,9.98
	S123.398,56.398,128.909,56.398z"/>
<path d="M69.458,56.398h12.406c5.511,0,9.98-4.469,9.98-9.98s-4.469-9.98-9.98-9.98H69.458c-5.511,0-9.98,4.469-9.98,9.98
	S63.946,56.398,69.458,56.398z"/>
<g>
</g>
<g>
</g>
<g>
</g>
<g>
</g>
<g>
</g>
<g>
</g>
<g>
</g>
<g>
</g>
<g>
</g>
<g>
</g>
<g>
</g>
<g>
</g>
<g>
</g>
<g>
</g>
<g>
</g>
</svg>
