<svg id="Capa_1" enable-background="new 0 0 512 512" height="512" viewBox="0 0 512 512" width="512" xmlns="http://www.w3.org/2000/svg"><g><g><path d="m481.095 482.64h-450.19c-17.068 0-30.905-13.837-30.905-30.906v-30.905l256-41.207 256 41.207v30.905c0 17.069-13.837 30.906-30.905 30.906z" fill="#fbf1cf"/></g><g><path d="m103.018 451.734v-47.488l-103.018 16.583v30.905c0 17.069 13.837 30.905 30.905 30.905h103.018c-17.068.001-30.905-13.836-30.905-30.905z" fill="#fae0bd"/></g><g><path d="m470.793 348.716h-429.586v-278.149c0-22.758 18.449-41.207 41.207-41.207h347.171c22.758 0 41.207 18.449 41.207 41.207v278.149z" fill="#6e768f"/></g><g><path d="m144.225 338.414c-11.379 0-20.604-9.225-20.604-20.604s9.225-20.604 20.604-20.604v-226.639c-11.379 0-20.604-9.225-20.604-20.604s9.225-20.604 20.604-20.604h-61.811c-22.758 0-41.207 18.449-41.207 41.207v278.149h103.018z" fill="#565e75"/></g><g><path d="m142.68 10.302h226.64v347.171h-226.64z" fill="#ceeafb" transform="matrix(0 1 -1 0 439.887 -72.113)"/></g><g><path d="m82.414 70.567h61.811v226.64h-61.811z" fill="#a3defe"/></g><g><path d="m512 420.829h-512l41.207-82.415h429.586z" fill="#fae0bd"/></g><g><path d="m41.207 338.414-41.207 82.415h103.018l41.207-82.415z" fill="#f8c7a5"/></g><g><path d="m200.342 391.011-14.909 29.818h141.135l-14.909-29.818c-3.49-6.98-10.624-11.389-18.428-11.389h-74.46c-7.805 0-14.939 4.409-18.429 11.389z" fill="#6e768f"/></g><g><path d="m259.977 379.622h-41.207c-7.804 0-14.938 4.409-18.428 11.389l-14.909 29.818h41.207l14.909-29.818c3.49-6.98 10.624-11.389 18.428-11.389z" fill="#565e75"/></g><g><g><g><ellipse cx="169.913" cy="161.45" fill="#e68a97" rx="31.765" ry="25.296"/></g><g><ellipse cx="342.087" cy="161.45" fill="#e68a97" rx="31.765" ry="25.296"/></g></g><g><path d="m188.425 144.288c-4.142 0-7.5-3.357-7.5-7.5v-12.362c0-4.143 3.358-7.5 7.5-7.5s7.5 3.357 7.5 7.5v12.362c0 4.143-3.358 7.5-7.5 7.5z" fill="#565e75"/></g><g><path d="m256 152.329c-8.996 0-17.55-3.896-23.47-10.688-2.721-3.123-2.396-7.86.727-10.582 3.124-2.721 7.86-2.396 10.582.727 3.07 3.523 7.503 5.544 12.162 5.544 4.658 0 9.091-2.021 12.161-5.544 2.722-3.122 7.46-3.447 10.582-.727 3.122 2.722 3.448 7.459.727 10.582-5.921 6.793-14.476 10.688-23.471 10.688z" fill="#565e75"/></g><g><path d="m340.287 143.943c-4.143 0-7.5-3.357-7.5-7.5 0-3.764-3.062-6.825-6.825-6.825s-6.826 3.062-6.826 6.825c0 4.143-3.357 7.5-7.5 7.5s-7.5-3.357-7.5-7.5c0-12.034 9.791-21.825 21.826-21.825 12.034 0 21.825 9.791 21.825 21.825 0 4.143-3.357 7.5-7.5 7.5z" fill="#565e75"/></g></g></g></svg>