<?xml version="1.0" encoding="iso-8859-1"?>
<!-- Generator: Adobe Illustrator 21.0.0, SVG Export Plug-In . SVG Version: 6.00 Build 0)  -->
<svg version="1.1" id="Capa_1" xmlns="http://www.w3.org/2000/svg" xmlns:xlink="http://www.w3.org/1999/xlink" x="0px" y="0px"
	 viewBox="0 0 512 512" style="enable-background:new 0 0 512 512;" xml:space="preserve">
<g>
	<g transform="translate(1 1)">
		<path style="fill:#CFD8DC;" d="M451.267,84.333v384c0,18.851-15.282,34.133-34.133,34.133H92.867
			c-18.851,0-34.133-15.282-34.133-34.133v-384H451.267z"/>
		<path style="fill:#FFFFFF;" d="M425.667,84.333v384c0,18.851-15.282,34.133-34.133,34.133H92.867
			c-18.851,0-34.133-15.282-34.133-34.133v-384H425.667z"/>
		<path style="fill:#558B30;" d="M152.6,186.733h204.8c4.713,0,8.533,3.821,8.533,8.533v204.8c0,4.713-3.82,8.533-8.533,8.533H152.6
			c-4.713,0-8.533-3.821-8.533-8.533v-204.8C144.067,190.554,147.887,186.733,152.6,186.733z"/>
		<path style="fill:#8BC34A;" d="M152.6,186.733h179.2c4.713,0,8.533,3.821,8.533,8.533v204.8c0,4.713-3.82,8.533-8.533,8.533H152.6
			c-4.713,0-8.533-3.821-8.533-8.533v-204.8C144.067,190.554,147.887,186.733,152.6,186.733z"/>
		<path style="fill:#FFFFFF;" d="M406.27,215.004c-1.555-1.646-3.699-2.607-5.962-2.671s-4.459,0.774-6.104,2.329L247.209,353.492
			l-36.847-44.228c-3.021-3.624-8.408-4.113-12.032-1.092s-4.113,8.408-1.092,12.032l42.667,51.2
			c1.507,1.813,3.697,2.922,6.05,3.063h0.512c2.179-0.004,4.275-0.837,5.862-2.33l153.6-145.067
			c1.646-1.555,2.607-3.699,2.671-5.962C408.664,218.845,407.826,216.649,406.27,215.004z"/>
		<path style="fill:#C52828;" d="M451.267,67.267v42.667H58.733V67.267c0.042-14.121,11.479-25.558,25.6-25.6h341.333
			C439.788,41.709,451.225,53.146,451.267,67.267z"/>
		<path style="fill:#F44335;" d="M425.667,67.267v42.667H58.733V67.267c0.042-14.121,11.479-25.558,25.6-25.6h315.733
			C414.188,41.709,425.625,53.146,425.667,67.267z"/>
		<g>
			<path style="fill:#607D8B;" d="M127,7.533L127,7.533c9.426,0,17.067,7.641,17.067,17.067v34.133
				c0,9.426-7.641,17.067-17.067,17.067l0,0c-9.426,0-17.067-7.641-17.067-17.067V24.6C109.933,15.174,117.574,7.533,127,7.533z"/>
			<path style="fill:#607D8B;" d="M383,7.533L383,7.533c9.426,0,17.067,7.641,17.067,17.067v34.133
				c0,9.426-7.641,17.067-17.067,17.067l0,0c-9.426,0-17.067-7.641-17.067-17.067V24.6C365.933,15.174,373.574,7.533,383,7.533z"/>
		</g>
	</g>
	<g>
		<path d="M211.362,310.263c-3.021-3.624-8.408-4.113-12.032-1.092s-4.113,8.408-1.092,12.032l42.667,51.2
			c1.507,1.813,3.697,2.922,6.05,3.063h0.512c2.179-0.004,4.275-0.837,5.862-2.33l153.6-145.067
			c3.426-3.238,3.579-8.64,0.341-12.066c-3.238-3.426-8.64-3.579-12.066-0.341L248.209,354.492L211.362,310.263z"/>
		<path d="M153.6,418.133h204.8c9.426,0,17.067-7.641,17.067-17.067v-102.4c0-4.713-3.82-8.533-8.533-8.533s-8.533,3.82-8.533,8.533
			v102.4H153.6v-204.8h204.8v8.533c0,4.713,3.82,8.533,8.533,8.533s8.533-3.821,8.533-8.533v-17.067c0-4.713-3.82-8.533-8.533-8.533
			H153.6c-9.426,0-17.067,7.641-17.067,17.067v204.8C136.533,410.492,144.174,418.133,153.6,418.133z"/>
		<path d="M102.4,25.6v8.533H85.333c-18.851,0-34.133,15.282-34.133,34.133v401.067c0.028,23.552,19.114,42.638,42.667,42.667
			h324.267c23.552-0.028,42.638-19.114,42.667-42.667V68.267c0-18.851-15.282-34.133-34.133-34.133H409.6V25.6
			C409.6,11.462,398.138,0,384,0c-14.138,0-25.6,11.462-25.6,25.6v8.533H153.6V25.6C153.6,11.462,142.139,0,128,0
			C113.862,0,102.4,11.462,102.4,25.6z M443.733,469.333c0,14.138-11.462,25.6-25.6,25.6H93.867c-14.138,0-25.6-11.462-25.6-25.6
			V119.467h375.467V469.333z M375.467,25.6c0-4.713,3.821-8.533,8.533-8.533s8.533,3.821,8.533,8.533v34.133
			c0,4.713-3.82,8.533-8.533,8.533s-8.533-3.821-8.533-8.533V25.6z M358.4,51.2v8.533c0,14.138,11.462,25.6,25.6,25.6
			c14.138,0,25.6-11.462,25.6-25.6V51.2h17.067c9.426,0,17.067,7.641,17.067,17.067V102.4H68.267V68.267
			c0-9.426,7.641-17.067,17.067-17.067H102.4v8.533c0,14.138,11.462,25.6,25.6,25.6c14.139,0,25.6-11.462,25.6-25.6V51.2H358.4z
			 M119.467,25.6c0-4.713,3.82-8.533,8.533-8.533c4.713,0,8.533,3.821,8.533,8.533v34.133c0,4.713-3.82,8.533-8.533,8.533
			c-4.713,0-8.533-3.821-8.533-8.533V25.6z"/>
	</g>
</g>
<g>
</g>
<g>
</g>
<g>
</g>
<g>
</g>
<g>
</g>
<g>
</g>
<g>
</g>
<g>
</g>
<g>
</g>
<g>
</g>
<g>
</g>
<g>
</g>
<g>
</g>
<g>
</g>
<g>
</g>
</svg>
