<svg id="Capa_1" enable-background="new 0 0 512 512" height="512" viewBox="0 0 512 512" width="512" xmlns="http://www.w3.org/2000/svg"><g><g fill="#0593fc"><path d="m494.5 102.523h-19.695v54.013h29.695v-44.013c0-5.523-4.477-10-10-10z"/><path d="m265.377 102.523h-247.877c-5.523 0-10 4.477-10 10v44.013h257.877z"/></g><path d="m56 112.523c0-5.523 4.477-10 10-10h-48.5c-5.523 0-10 4.477-10 10v44.013h48.5z" fill="#0182fc"/><g><path d="m499.5 457.007h-487c-2.761 0-5-2.239-5-5v-295.47h497v295.47c0 2.761-2.239 5-5 5z" fill="#eaf6ff"/></g><g><path d="m56 452.007v-295.47h-48.5v295.47c0 2.761 2.239 5 5 5h48.5c-2.761 0-5-2.239-5-5z" fill="#d8ecfe"/></g><g><path d="m471.805 69.753h-203.428c-1.657 0-3 1.343-3 3v128.423c0 1.657 1.343 3 3 3h23.71c1.657 0 3 1.343 3 3v24.824c0 2.673 3.231 4.011 5.121 2.121l29.067-29.067c.563-.563 1.326-.879 2.121-.879h140.409c1.657 0 3-1.343 3-3v-128.422c0-1.657-1.343-3-3-3z" fill="#97d729"/></g><g><path d="m311 201.177v-128.424c0-1.657 1.343-3 3-3h-45.623c-1.657 0-3 1.343-3 3v128.423c0 1.657 1.343 3 3 3h23.709c1.657 0 3 1.343 3 3v24.824c0 2.673 3.231 4.011 5.121 2.121l29.067-29.067c.563-.563 1.326-.879 2.121-.879h-17.395c-1.657.002-3-1.342-3-2.998z" fill="#8bc727"/></g><g><path d="m118.003 110.484c6.589-1.954 13.56-3.019 20.784-3.019h24.013c7.223 0 14.194 1.065 20.784 3.019 8.097-5.461 13.45-14.716 13.45-25.162 0-16.681-13.648-30.329-30.329-30.329h-31.821c-16.681 0-30.329 13.648-30.329 30.329-.001 10.446 5.351 19.702 13.448 25.162z" fill="#a44f3e"/><path d="m118.003 110.484c6.589-1.954 13.56-3.019 20.784-3.019h17.885c-5.941-5.543-9.672-13.425-9.672-22.142 0-14.869 10.847-27.319 25.017-29.85-1.727-.309-3.5-.479-5.313-.479h-31.821c-16.681 0-30.329 13.648-30.329 30.329 0 10.445 5.352 19.701 13.449 25.161z" fill="#883f2e"/><path d="m243.996 333.701c-.388-.292-.765-.604-1.119-.958l-21.753-21.753c-1.265-.096-2.54-.161-3.83-.161h-133.002c-27.614 0-50 22.386-50 50v96.177h206.028v-123.305z" fill="#ffd15b"/><path d="m103.429 310.83h-19.137c-27.614 0-50 22.386-50 50v96.177h42.706v-96.177c0-19.09 10.702-35.677 26.431-44.1z" fill="#fdb441"/><path d="m155.41 295.723h-9.233c-5.624 0-11.041-.879-16.129-2.497l-26.619 17.604v53.331c0 2.341 2.561 3.78 4.56 2.562l42.805-26.061 42.805 26.061c1.999 1.217 4.56-.222 4.56-2.562v-53.331l-26.619-17.604c-5.089 1.617-10.506 2.497-16.13 2.497z" fill="#fff"/><path d="m155.41 295.723h-9.233c-5.309 0-10.433-.788-15.271-2.236v31.923l19.888 15.252 19.888-15.252v-31.923c-4.839 1.448-9.963 2.236-15.272 2.236z" fill="#fed2a4"/><path d="m152.224 295.723h-6.047c-5.309 0-10.433-.788-15.271-2.236v31.923l19.888 15.252 15.909-12.201-14.479-11.104z" fill="#ffbd86"/><path d="m78.043 199.428h14.94v-3.684c0-14.306 11.597-25.903 25.903-25.903h63.816c14.306 0 25.903 11.597 25.903 25.903v3.684h14.94c4.549 0 8.769 1.401 12.258 3.791v-22.752c0-40.318-32.684-73.002-73.002-73.002h-24.013c-40.318 0-73.002 32.684-73.002 73.002v22.752c3.488-2.39 7.708-3.791 12.257-3.791z" fill="#bb5d4c"/><path d="m78.043 199.428h14.94v-3.684c0-13.591 10.47-24.73 23.783-25.809 4.486-31.019 28.473-55.716 59.135-61.275-4.253-.771-8.626-1.195-13.101-1.195h-24.013c-40.318 0-73.002 32.684-73.002 73.002v22.752c3.489-2.39 7.709-3.791 12.258-3.791z" fill="#a44f3e"/><g fill="#ffe5c2"><path d="m92.983 242.529v-43.1h-14.94c-11.994 0-21.718 9.723-21.718 21.718v7.13c0 11.994 9.723 21.718 21.718 21.718h15.472c-.343-2.442-.532-4.932-.532-7.466z"/><path d="m223.544 199.428h-14.94v43.1c0 2.535-.189 5.024-.532 7.465h15.472c11.994 0 21.718-9.723 21.718-21.718v-7.13c-.001-11.993-9.724-21.717-21.718-21.717z"/></g><g><path d="m92.983 242.529v-46.784c0-14.306 11.597-25.903 25.903-25.903h63.816c14.306 0 25.903 11.597 25.903 25.903v46.784c0 29.378-23.816 53.194-53.194 53.194h-9.233c-29.38 0-53.195-23.816-53.195-53.194z" fill="#ffe5c2"/></g><g><path d="m126.379 242.529v-46.784c0-14.306 11.597-25.903 25.903-25.903h-33.396c-14.306 0-25.903 11.597-25.903 25.903v46.784c0 29.378 23.816 53.194 53.194 53.194h9.233c4.158 0 8.198-.493 12.081-1.395-23.555-5.473-41.112-26.579-41.112-51.799z" fill="#fed2a4"/></g></g><g><path d="m243.996 333.701h52.374v-51.846c0-10.908-8.843-19.751-19.751-19.751h-10.881c-10.908 0-19.751 8.843-19.751 19.751v23.461l-10.107-10.107c-4.216-4.216-11.052-4.216-15.268 0s-4.216 11.052 0 15.268l22.266 22.266c.353.354.73.666 1.118.958z" fill="#ffe5c2"/><path d="m243.996 333.701h21.34v-71.577c-10.721.216-19.35 8.958-19.35 19.731v23.461l-10.107-10.107c-4.216-4.216-11.052-4.216-15.268 0s-4.216 11.052 0 15.268l22.266 22.266c.354.354.731.666 1.119.958z" fill="#fed2a4"/><g><path d="m240.32 333.701h59.664v123.306h-59.664z" fill="#ffd15b"/></g><g><path d="m240.32 333.701h25.016v123.306h-25.016z" fill="#fdb441"/></g></g><g><g><path d="m471.805 312.993h-136.613c-1.657 0-3-1.343-3-3v-64.753c0-1.657 1.343-3 3-3h136.613c1.657 0 3 1.343 3 3v64.754c0 1.656-1.343 2.999-3 2.999z" fill="#fd4755"/></g><g><path d="m369.387 309.993v-64.753c0-1.657 1.343-3 3-3h-37.195c-1.657 0-3 1.343-3 3v64.754c0 1.657 1.343 3 3 3h37.195c-1.657-.001-3-1.344-3-3.001z" fill="#fb2b3a"/></g><circle cx="370.076" cy="277.616" fill="#fff" r="14.324"/></g><g><g><path d="m471.805 414.747h-136.613c-1.657 0-3-1.343-3-3v-64.754c0-1.657 1.343-3 3-3h136.613c1.657 0 3 1.343 3 3v64.754c0 1.657-1.343 3-3 3z" fill="#0593fc"/></g><g><path d="m369.387 411.747v-64.754c0-1.657 1.343-3 3-3h-37.195c-1.657 0-3 1.343-3 3v64.754c0 1.657 1.343 3 3 3h37.195c-1.657 0-3-1.343-3-3z" fill="#0182fc"/></g><g><circle cx="370.076" cy="379.37" fill="#fff" r="14.324"/></g></g><g><path d="m162.532 252.694c-6.473 6.474-17.005 6.472-23.478 0-2.93-2.929-7.678-2.929-10.607 0s-2.929 7.678 0 10.606c6.161 6.161 14.254 9.241 22.347 9.241 8.092 0 16.185-3.081 22.346-9.241 2.929-2.929 2.929-7.678 0-10.606-2.93-2.929-7.678-2.929-10.608 0z"/><path d="m130.45 220.391v-14.315c0-4.142-3.357-7.5-7.5-7.5s-7.5 3.358-7.5 7.5v14.315c0 4.142 3.357 7.5 7.5 7.5s7.5-3.358 7.5-7.5z"/><path d="m178.637 198.576c-4.143 0-7.5 3.358-7.5 7.5v14.315c0 4.142 3.357 7.5 7.5 7.5s7.5-3.358 7.5-7.5v-14.315c0-4.142-3.358-7.5-7.5-7.5z"/><path d="m145.188 242.227c1.481 1.667 3.54 2.517 5.608 2.517 1.771 0 3.551-.625 4.979-1.895 3.097-2.752 3.375-7.493.623-10.588l-3.752-4.221 4.003-5.004c2.588-3.234 2.063-7.954-1.171-10.542-3.236-2.588-7.954-2.062-10.542 1.171l-7.955 9.944c-2.283 2.854-2.177 6.937.251 9.668z"/><path d="m440.712 99.269h-141.241c-4.143 0-7.5 3.358-7.5 7.5s3.357 7.5 7.5 7.5h141.241c4.143 0 7.5-3.358 7.5-7.5s-3.358-7.5-7.5-7.5z"/><path d="m448.212 134.043c0-4.142-3.357-7.5-7.5-7.5h-141.241c-4.143 0-7.5 3.358-7.5 7.5s3.357 7.5 7.5 7.5h141.241c4.142 0 7.5-3.358 7.5-7.5z"/><path d="m299.471 153.817c-4.143 0-7.5 3.358-7.5 7.5s3.357 7.5 7.5 7.5h86.692c4.143 0 7.5-3.358 7.5-7.5s-3.357-7.5-7.5-7.5z"/><path d="m494.5 95.023h-12.195v-22.27c0-5.79-4.71-10.5-10.5-10.5h-28.805c-4.143 0-7.5 3.358-7.5 7.5s3.357 7.5 7.5 7.5h24.305v119.423h-135.909c-2.805 0-5.441 1.092-7.425 3.075l-21.385 21.385v-13.96c0-5.79-4.71-10.5-10.5-10.5h-19.21v-119.423h135.124c4.143 0 7.5-3.358 7.5-7.5s-3.357-7.5-7.5-7.5h-139.623c-5.79 0-10.5 4.71-10.5 10.5v22.27h-54.614c.824-3.097 1.27-6.347 1.27-9.701 0-20.859-16.97-37.83-37.829-37.83h-31.821c-20.859 0-37.829 16.97-37.829 37.83 0 3.354.446 6.603 1.27 9.701h-80.824c-9.649 0-17.5 7.851-17.5 17.5v339.483c0 6.893 5.607 12.5 12.5 12.5h432.5c4.143 0 7.5-3.358 7.5-7.5s-3.357-7.5-7.5-7.5h-137.516v-21.506c0-4.142-3.357-7.5-7.5-7.5s-7.5 3.358-7.5 7.5v21.507h-44.664v-108.306h44.664v51.799c0 4.142 3.357 7.5 7.5 7.5s7.5-3.358 7.5-7.5v-59.299c0-2.718-1.451-5.091-3.615-6.407v-45.439c0-15.026-12.225-27.251-27.251-27.251h-10.881c-15.026 0-27.251 12.225-27.251 27.251v5.82c-3-2.035-6.536-3.128-10.241-3.128-4.887 0-9.481 1.903-12.938 5.359-3.69 3.691-5.454 8.578-5.326 13.424h-9.567l-13.512-8.936c13.377-8.154 23.37-21.336 27.332-36.901h9.311c16.11 0 29.218-13.107 29.218-29.218v-7.129c0-8.498-3.649-16.158-9.46-21.501v-19.177c0-5.631-.593-11.124-1.699-16.431h16.274v37.14c0 5.79 4.71 10.5 10.5 10.5h19.21v20.324c0 4.262 2.545 8.07 6.482 9.701 1.307.541 2.674.804 4.028.804 2.727 0 5.4-1.067 7.414-3.081l27.749-27.749h138.544c5.79 0 10.5-4.71 10.5-10.5v-37.14h14.695v285.47h-17c-4.143 0-7.5 3.358-7.5 7.5s3.357 7.5 7.5 7.5h19.5c6.893 0 12.5-5.607 12.5-12.5v-339.483c0-9.649-7.851-17.5-17.5-17.5zm-359.617-32.53h31.821c12.588 0 22.829 10.241 22.829 22.83 0 6.733-2.945 12.778-7.597 16.959-6.137-1.502-12.542-2.317-19.136-2.317h-24.013c-6.594 0-12.999.814-19.136 2.317-4.652-4.181-7.597-10.226-7.597-16.959 0-12.589 10.241-22.83 22.829-22.83zm-119.883 50.03c0-1.378 1.121-2.5 2.5-2.5h82.388c-15.661 8.682-28.141 22.426-35.206 39.013h-49.682zm63.043 94.405h7.439v35.565h-7.439c-7.84 0-14.218-6.378-14.218-14.218v-7.129c0-7.84 6.378-14.218 14.218-14.218zm-51.251 242.579h-11.792v-285.47h44.983c-1.106 5.307-1.699 10.8-1.699 16.431v19.178c-5.81 5.344-9.459 13.003-9.459 21.5v7.129c0 16.111 13.107 29.218 29.218 29.218h9.311c3.962 15.565 13.954 28.746 27.331 36.901l-13.512 8.936h-16.881c-31.706 0-57.5 25.794-57.5 57.5zm99.549-118.146 11.199 8.589-26.611 16.203v-41.291l12.477-8.251v18.8c-.001 2.331 1.084 4.531 2.935 5.95zm99.572-30.849c.841-.84 1.822-.966 2.332-.966s1.49.125 2.33.965l10.107 10.107c2.146 2.145 5.37 2.786 8.174 1.626 2.803-1.161 4.63-3.896 4.63-6.929v-23.461c0-6.755 5.496-12.251 12.251-12.251h10.881c6.755 0 12.251 5.496 12.251 12.251v44.346h-41.928l-21.027-21.027c-1.285-1.284-1.285-3.376-.001-4.661zm-25.61 72.802c3.303-1.857 5.355-5.364 5.355-9.153v-45.831h11.637c.192 0 .382.009.573.012l14.972 14.971c-.007.129-.02.257-.02.388v115.806h-191.028v-88.677c0-23.435 19.065-42.5 42.5-42.5h11.637v45.831c0 3.79 2.052 7.297 5.355 9.153 3.303 1.857 7.366 1.786 10.604-.185l38.904-23.687 38.905 23.687c1.672 1.018 3.565 1.529 5.46 1.529 1.774.001 3.548-.447 5.146-1.344zm-61.898-51.604v-18.984c2.545.327 5.139.497 7.771.497h9.233c2.633 0 5.226-.17 7.771-.497v18.984l-12.389 9.5zm52.253-6.849v41.292l-26.612-16.203 11.2-8.589c1.851-1.419 2.936-3.619 2.936-5.952v-18.799zm10.446-72.332c0 25.196-20.498 45.694-45.694 45.694h-9.233c-25.196 0-45.694-20.498-45.694-45.694v-46.784c0-10.147 8.256-18.403 18.403-18.403h63.815c10.147 0 18.403 8.255 18.403 18.403zm-18.403-80.187h-63.815c-17.128 0-31.278 12.96-33.179 29.586h-7.664c-1.621 0-3.209.139-4.759.394v-11.855c0-36.118 29.385-65.502 65.503-65.502h24.013c36.118 0 65.502 29.384 65.502 65.502v11.854c-1.549-.255-3.137-.394-4.758-.394h-7.664c-1.901-16.626-16.051-29.585-33.179-29.585zm55.061 65.933c0 7.84-6.378 14.218-14.218 14.218h-7.439v-35.565h7.439c7.84 0 14.218 6.378 14.218 14.218zm20.115-79.238h-20.973c-7.065-16.588-19.545-30.332-35.206-39.013h56.179zm239.123 0h-14.695v-39.013h12.195c1.379 0 2.5 1.122 2.5 2.5z"/><path d="m335.192 320.493h136.612c5.79 0 10.5-4.71 10.5-10.5v-64.753c0-5.79-4.71-10.5-10.5-10.5h-136.612c-5.79 0-10.5 4.71-10.5 10.5v64.753c0 5.79 4.71 10.5 10.5 10.5zm4.5-70.753h127.612v55.753h-127.612z"/><path d="m370.076 255.792c-12.034 0-21.824 9.79-21.824 21.824s9.79 21.824 21.824 21.824c12.033 0 21.823-9.791 21.823-21.824s-9.79-21.824-21.823-21.824zm0 28.648c-3.763 0-6.824-3.062-6.824-6.824s3.062-6.824 6.824-6.824 6.823 3.061 6.823 6.824-3.06 6.824-6.823 6.824z"/><path d="m451.245 258.882h-44.563c-4.143 0-7.5 3.358-7.5 7.5s3.357 7.5 7.5 7.5h44.563c4.143 0 7.5-3.358 7.5-7.5s-3.357-7.5-7.5-7.5z"/><path d="m451.245 280.103h-44.563c-4.143 0-7.5 3.358-7.5 7.5s3.357 7.5 7.5 7.5h44.563c4.143 0 7.5-3.358 7.5-7.5s-3.357-7.5-7.5-7.5z"/><path d="m324.692 411.747c0 5.79 4.71 10.5 10.5 10.5h136.612c5.79 0 10.5-4.71 10.5-10.5v-64.754c0-5.79-4.71-10.5-10.5-10.5h-136.612c-5.79 0-10.5 4.71-10.5 10.5zm15-60.254h127.612v55.754h-127.612z"/><path d="m370.076 357.546c-12.034 0-21.824 9.791-21.824 21.824s9.79 21.824 21.824 21.824c12.033 0 21.823-9.791 21.823-21.824s-9.79-21.824-21.823-21.824zm0 28.648c-3.763 0-6.824-3.062-6.824-6.824s3.062-6.824 6.824-6.824 6.823 3.062 6.823 6.824-3.06 6.824-6.823 6.824z"/><path d="m451.245 360.636h-44.563c-4.143 0-7.5 3.358-7.5 7.5s3.357 7.5 7.5 7.5h44.563c4.143 0 7.5-3.358 7.5-7.5s-3.357-7.5-7.5-7.5z"/><path d="m451.245 381.857h-44.563c-4.143 0-7.5 3.358-7.5 7.5s3.357 7.5 7.5 7.5h44.563c4.143 0 7.5-3.358 7.5-7.5s-3.357-7.5-7.5-7.5z"/></g></g></svg>