<svg id="Filled" height="512" viewBox="0 0 512 512" width="512" xmlns="http://www.w3.org/2000/svg"><g><g><g><rect fill="#4dccff" height="376" rx="10" width="464" x="24" y="24"/><path d="m24 72h464v272h-464z" fill="#f2faff"/><rect fill="#b3e9ff" height="96" rx="10" width="208" x="248" y="104"/><path d="m352 488h-192v-9.585a20 20 0 0 1 13.675-18.973l6.974-2.325a40 40 0 0 0 27.351-37.947v-19.17h96v19.17a40 40 0 0 0 27.351 37.947l6.974 2.325a20 20 0 0 1 13.675 18.973z" fill="#4dccff"/><path d="m208 400h96v24h-96z" fill="#25b1fa"/></g><g><path d="m144 184c-64 0-88 86.562-88 144v8h176v-8c0-57.438-24-144-88-144z" fill="#fdbf67"/><path d="m160 152h-32l-8 40 24 40 24-40z" fill="#ffd4cf"/><path d="m160 152h-32l-4.056 20.281.5.3a38 38 0 0 0 39.1 0l.505-.3z" fill="#fbb8b0"/><path d="m240 248h36a20 20 0 0 0 20-20 20 20 0 0 0 -20-20h-6.459a20 20 0 0 0 -18.57 12.572z" fill="#ffd4cf"/><path d="m180.228 336h51.772v-8c0-23.46-4-51.779-13.1-77.074z" fill="#fdad67"/><path d="m240 248h32l-24 88h-48z" fill="#fdbf67"/><g fill="#fffdfa"><path d="m192 200-16 56-32-24 24-40z"/><path d="m96 200 16 56 32-24-24-40z"/></g></g><path d="m174.29 145.15-20 12a20 20 0 0 1 -20.58 0l-20-12a20 20 0 0 1 -9.71-17.15v-68.676h80v68.676a20 20 0 0 1 -9.71 17.15z" fill="#ffd4cf"/><path d="m178 24h-52a30 30 0 0 0 -30 30v18h40s13.431 16 30 16h42v-34a30 30 0 0 0 -30-30z" fill="#fb8656"/></g><path d="m478 16h-78v16h78a2 2 0 0 1 2 2v30h-264v-10a37.8 37.8 0 0 0 -7.032-22h175.032v-16h-350a18.021 18.021 0 0 0 -18 18v118h16v-72h64v48a28.143 28.143 0 0 0 13.594 24.01l9.148 5.488-5.008 25.038c-21.241 9.839-38.586 30.764-50.334 60.826-9.789 25.026-15.4 55.875-15.4 84.638h-16v-160h-16v222a18.021 18.021 0 0 0 18 18h166v11.17a31.957 31.957 0 0 1 -21.88 30.357l-6.975 2.326a27.964 27.964 0 0 0 -19.145 26.562v9.585a8 8 0 0 0 8 8h192a8 8 0 0 0 8-8v-9.585a27.966 27.966 0 0 0 -19.146-26.563l-6.973-2.325a31.957 31.957 0 0 1 -21.881-30.357v-11.17h80v-16h-358a2 2 0 0 1 -2-2v-46h448v46a2 2 0 0 1 -2 2h-70v16h70a18.021 18.021 0 0 0 18-18v-356a18.021 18.021 0 0 0 -18-18zm-182 392v11.17a47.939 47.939 0 0 0 32.822 45.537l6.972 2.323a11.986 11.986 0 0 1 8.206 11.385v1.585h-176v-1.585a11.984 11.984 0 0 1 8.205-11.384l6.974-2.324a47.94 47.94 0 0 0 32.821-45.537v-11.17zm-96-354v26h-34a22.025 22.025 0 0 1 -22-22v-26h34a22.025 22.025 0 0 1 22 22zm-72-22v32h-24v-10a22.025 22.025 0 0 1 22-22zm-96 2a2 2 0 0 1 2-2h61.032a37.8 37.8 0 0 0 -7.032 22v10h-56zm80 94v-48h23.032a37.981 37.981 0 0 0 30.968 16h10v32a12.058 12.058 0 0 1 -5.826 10.289l-20 12a11.978 11.978 0 0 1 -12.348 0l-20-12a12.058 12.058 0 0 1 -5.826-10.289zm69.827 78.485-10.327 36.141-16.929-12.7 18.093-30.155a63.491 63.491 0 0 1 9.163 6.714zm-66.5-6.725 18.1 30.169-16.929 12.7-10.341-36.193a62.966 62.966 0 0 1 9.169-6.676zm28.673-31.751a27.924 27.924 0 0 0 10.623-2.1l4.926 24.628-15.549 25.914-15.549-25.915 4.926-24.628a27.92 27.92 0 0 0 10.623 2.101zm-65.7 81.179a131.494 131.494 0 0 1 15.231-28.708l10.777 37.72a8 8 0 0 0 12.492 4.2l27.2-20.4 27.2 20.4a8 8 0 0 0 12.492-4.2l10.762-37.666c10.3 14.25 18.429 33.4 23.659 56.286l-23.264 51.18h-90.849v-48h-16v48h-24c0-26.846 5.211-55.571 14.3-78.812zm134.124 78.812 22.143-48.715.427-.087c-.04-.2-.081-.391-.121-.586l10.278-22.612h16.375l-19.636 72zm75.576-100a12.013 12.013 0 0 1 -12 12h-24.184l6.583-16.457a11.943 11.943 0 0 1 11.142-7.543h6.459a12.013 12.013 0 0 1 12 12zm-29.526 100 19.658-72.081a27.99 27.99 0 0 0 21.942-42.205l58.173-72.714-12.494-10-57.471 71.839a27.825 27.825 0 0 0 -12.282-2.839h-6.459a27.867 27.867 0 0 0 -26 17.6l-10.9 27.254-4.21 9.261a169.7 169.7 0 0 0 -14.683-33.342c-10.729-18.243-24-31.093-39.484-38.242l-5.006-25.031 9.148-5.488a28.143 28.143 0 0 0 13.594-24.012v-32h16a8 8 0 0 0 8-8v-8h264v248z"/><path d="m232 360h48v16h-48z"/><path d="m48 40h16v16h-16z"/><path d="m416 40h16v16h-16z"/><path d="m448 40h16v16h-16z"/><path d="m432 264h32v16h-32z"/><path d="m336 264h80v16h-80z"/><path d="m392 232h72v16h-72z"/><path d="m336 232h40v16h-40z"/><path d="m296 296h88v16h-88z"/><path d="m400 296h64v16h-64z"/><path d="m456 96h-208a8 8 0 0 0 -8 8v80h16v-72h192v80h-112v16h120a8 8 0 0 0 8-8v-96a8 8 0 0 0 -8-8z"/></g></svg>